<svg xmlns="http://www.w3.org/2000/svg" viewBox="0 0 400 600" preserveAspectRatio="xMidYMid slice"><defs><linearGradient id="sky" x1="0" y1="0" x2="0" y2="1"><stop offset="0" stop-color="#9ECDF3"/><stop offset="1" stop-color="#F3E8D3"/></linearGradient><linearGradient id="gr" x1="0" y1="0" x2="0" y2="1"><stop offset="0" stop-color="#B9B2A5"/><stop offset="1" stop-color="#8E887B"/></linearGradient></defs><rect width="400" height="600" fill="url(#sky)"/><circle cx="60" cy="100" r="58" fill="#FFE08A" opacity=".25"/><circle cx="60" cy="100" r="36" fill="#FFE08A"/><g transform="translate(300 130) scale(0.8)" opacity="0.9" fill="#fff"><ellipse cx="0" cy="0" rx="46" ry="16"/><ellipse cx="-18" cy="-12" rx="24" ry="16"/><ellipse cx="14" cy="-16" rx="28" ry="18"/></g><rect y="470" width="400" height="130" fill="url(#gr)"/><polygon points="60,290 200,230 340,290" fill="#475569"/><rect x="70" y="290" width="260" height="180" fill="#CBD5E1"/><rect x="90" y="300" width="220" height="34" rx="3" fill="#F3F4F6" stroke="#CBD5E1" stroke-width="2"/><rect x="90" y="340" width="220" height="34" rx="3" fill="#F3F4F6" stroke="#CBD5E1" stroke-width="2"/><rect x="90" y="380" width="220" height="34" rx="3" fill="#F3F4F6" stroke="#CBD5E1" stroke-width="2"/><rect x="90" y="420" width="220" height="34" rx="3" fill="#F3F4F6" stroke="#CBD5E1" stroke-width="2"/><g><path d="M110 530 q10-46 60-52 h70 q44 4 62 52Z" fill="#2563EB"/><rect x="100" y="526" width="220" height="30" rx="10" fill="#1D4ED8"/><circle cx="150" cy="562" r="20" fill="#111827"/><circle cx="270" cy="562" r="20" fill="#111827"/><path d="M165 484 h60 l24 42 h-100Z" fill="#BFDBFE"/></g></svg>