<svg xmlns="http://www.w3.org/2000/svg" viewBox="0 0 400 600" preserveAspectRatio="xMidYMid slice"><defs><linearGradient id="sky" x1="0" y1="0" x2="0" y2="1"><stop offset="0" stop-color="#8FD0F5"/><stop offset="1" stop-color="#F9F1D8"/></linearGradient></defs><rect width="400" height="600" fill="url(#sky)"/><circle cx="70" cy="100" r="62" fill="#FFE08A" opacity=".25"/><circle cx="70" cy="100" r="40" fill="#FFE08A"/><g transform="translate(280 100) scale(0.9)" opacity="0.9" fill="#fff"><ellipse cx="0" cy="0" rx="46" ry="16"/><ellipse cx="-18" cy="-12" rx="24" ry="16"/><ellipse cx="14" cy="-16" rx="28" ry="18"/></g><rect y="310" width="400" height="290" fill="#4FA85A"/><path d="M110 600 q-11 -68.5 -16.5 -137" stroke="#6CC36C" stroke-width="5" fill="none" stroke-linecap="round"/><path d="M235 600 q-12 -49.5 -18.0 -99" stroke="#3F9B4F" stroke-width="5" fill="none" stroke-linecap="round"/><path d="M0 600 q3 -81.0 4.5 -162" stroke="#2F8443" stroke-width="5" fill="none" stroke-linecap="round"/><path d="M399 600 q-7 -37.5 -10.5 -75" stroke="#2F8443" stroke-width="5" fill="none" stroke-linecap="round"/><path d="M131 600 q12 -52.0 18.0 -104" stroke="#3F9B4F" stroke-width="5" fill="none" stroke-linecap="round"/><path d="M124 600 q-14 -57.0 -21.0 -114" stroke="#2F8443" stroke-width="5" fill="none" stroke-linecap="round"/><path d="M399 600 q-8 -64.5 -12.0 -129" stroke="#56B35E" stroke-width="5" fill="none" stroke-linecap="round"/><path d="M148 600 q6 -67.0 9.0 -134" stroke="#2F8443" stroke-width="5" fill="none" stroke-linecap="round"/><path d="M34 600 q7 -73.0 10.5 -146" stroke="#6CC36C" stroke-width="5" fill="none" stroke-linecap="round"/><path d="M249 600 q-9 -61.5 -13.5 -123" stroke="#56B35E" stroke-width="5" fill="none" stroke-linecap="round"/><path d="M232 600 q-12 -65.5 -18.0 -131" stroke="#2F8443" stroke-width="5" fill="none" stroke-linecap="round"/><path d="M-7 600 q4 -67.0 6.0 -134" stroke="#2F8443" stroke-width="5" fill="none" stroke-linecap="round"/><path d="M381 600 q-8 -95.0 -12.0 -190" stroke="#6CC36C" stroke-width="5" fill="none" stroke-linecap="round"/><path d="M206 600 q-1 -66.5 -1.5 -133" stroke="#6CC36C" stroke-width="5" fill="none" stroke-linecap="round"/><path d="M72 600 q-5 -59.5 -7.5 -119" stroke="#2F8443" stroke-width="5" fill="none" stroke-linecap="round"/><path d="M406 600 q-12 -35.5 -18.0 -71" stroke="#3F9B4F" stroke-width="5" fill="none" stroke-linecap="round"/><path d="M226 600 q2 -65.5 3.0 -131" stroke="#6CC36C" stroke-width="5" fill="none" stroke-linecap="round"/><path d="M348 600 q-10 -73.5 -15.0 -147" stroke="#56B35E" stroke-width="5" fill="none" stroke-linecap="round"/><path d="M24 600 q-8 -82.5 -12.0 -165" stroke="#6CC36C" stroke-width="5" fill="none" stroke-linecap="round"/><path d="M131 600 q-3 -53.5 -4.5 -107" stroke="#6CC36C" stroke-width="5" fill="none" stroke-linecap="round"/><path d="M372 600 q6 -71.0 9.0 -142" stroke="#56B35E" stroke-width="5" fill="none" stroke-linecap="round"/><path d="M155 600 q12 -42.5 18.0 -85" stroke="#3F9B4F" stroke-width="5" fill="none" stroke-linecap="round"/><path d="M352 600 q-6 -59.0 -9.0 -118" stroke="#56B35E" stroke-width="5" fill="none" stroke-linecap="round"/><path d="M52 600 q-9 -72.0 -13.5 -144" stroke="#2F8443" stroke-width="5" fill="none" stroke-linecap="round"/><path d="M225 600 q-13 -33.0 -19.5 -66" stroke="#2F8443" stroke-width="5" fill="none" stroke-linecap="round"/><path d="M347 600 q14 -40.5 21.0 -81" stroke="#2F8443" stroke-width="5" fill="none" stroke-linecap="round"/><path d="M366 600 q-14 -71.5 -21.0 -143" stroke="#2F8443" stroke-width="5" fill="none" stroke-linecap="round"/><path d="M137 600 q-10 -71.0 -15.0 -142" stroke="#6CC36C" stroke-width="5" fill="none" stroke-linecap="round"/><path d="M307 600 q-5 -39.5 -7.5 -79" stroke="#56B35E" stroke-width="5" fill="none" stroke-linecap="round"/><path d="M217 600 q-10 -67.0 -15.0 -134" stroke="#2F8443" stroke-width="5" fill="none" stroke-linecap="round"/><path d="M185 600 q-4 -50.0 -6.0 -100" stroke="#3F9B4F" stroke-width="5" fill="none" stroke-linecap="round"/><path d="M176 600 q0 -35.5 0.0 -71" stroke="#56B35E" stroke-width="5" fill="none" stroke-linecap="round"/><path d="M176 600 q-5 -76.0 -7.5 -152" stroke="#3F9B4F" stroke-width="5" fill="none" stroke-linecap="round"/><path d="M214 600 q-1 -56.5 -1.5 -113" stroke="#56B35E" stroke-width="5" fill="none" stroke-linecap="round"/><path d="M48 600 q-13 -37.5 -19.5 -75" stroke="#3F9B4F" stroke-width="5" fill="none" stroke-linecap="round"/><path d="M367 600 q5 -51.5 7.5 -103" stroke="#56B35E" stroke-width="5" fill="none" stroke-linecap="round"/><path d="M300 600 q3 -35.0 4.5 -70" stroke="#6CC36C" stroke-width="5" fill="none" stroke-linecap="round"/><path d="M288 600 q-4 -61.5 -6.0 -123" stroke="#3F9B4F" stroke-width="5" fill="none" stroke-linecap="round"/><path d="M52 600 q10 -67.0 15.0 -134" stroke="#6CC36C" stroke-width="5" fill="none" stroke-linecap="round"/><path d="M323 600 q1 -55.5 1.5 -111" stroke="#56B35E" stroke-width="5" fill="none" stroke-linecap="round"/><path d="M113 600 q-1 -86.0 -1.5 -172" stroke="#6CC36C" stroke-width="5" fill="none" stroke-linecap="round"/><path d="M8 600 q-1 -58.0 -1.5 -116" stroke="#6CC36C" stroke-width="5" fill="none" stroke-linecap="round"/><path d="M117 600 q12 -84.5 18.0 -169" stroke="#56B35E" stroke-width="5" fill="none" stroke-linecap="round"/><path d="M245 600 q-13 -54.0 -19.5 -108" stroke="#3F9B4F" stroke-width="5" fill="none" stroke-linecap="round"/><path d="M120 600 q-7 -62.0 -10.5 -124" stroke="#56B35E" stroke-width="5" fill="none" stroke-linecap="round"/><path d="M385 600 q-1 -59.5 -1.5 -119" stroke="#2F8443" stroke-width="5" fill="none" stroke-linecap="round"/><path d="M62 600 q-13 -71.5 -19.5 -143" stroke="#2F8443" stroke-width="5" fill="none" stroke-linecap="round"/><path d="M279 600 q4 -44.5 6.0 -89" stroke="#6CC36C" stroke-width="5" fill="none" stroke-linecap="round"/><path d="M324 600 q1 -35.0 1.5 -70" stroke="#6CC36C" stroke-width="5" fill="none" stroke-linecap="round"/><path d="M37 600 q-8 -85.0 -12.0 -170" stroke="#56B35E" stroke-width="5" fill="none" stroke-linecap="round"/><path d="M162 600 q7 -67.5 10.5 -135" stroke="#6CC36C" stroke-width="5" fill="none" stroke-linecap="round"/><path d="M399 600 q12 -70.0 18.0 -140" stroke="#6CC36C" stroke-width="5" fill="none" stroke-linecap="round"/><path d="M260 600 q6 -57.5 9.0 -115" stroke="#2F8443" stroke-width="5" fill="none" stroke-linecap="round"/><path d="M163 600 q1 -80.0 1.5 -160" stroke="#3F9B4F" stroke-width="5" fill="none" stroke-linecap="round"/><path d="M133 600 q-13 -54.0 -19.5 -108" stroke="#6CC36C" stroke-width="5" fill="none" stroke-linecap="round"/><path d="M307 600 q10 -46.0 15.0 -92" stroke="#2F8443" stroke-width="5" fill="none" stroke-linecap="round"/><path d="M331 600 q13 -37.5 19.5 -75" stroke="#56B35E" stroke-width="5" fill="none" stroke-linecap="round"/><path d="M342 600 q4 -89.0 6.0 -178" stroke="#6CC36C" stroke-width="5" fill="none" stroke-linecap="round"/><path d="M372 600 q-2 -81.5 -3.0 -163" stroke="#56B35E" stroke-width="5" fill="none" stroke-linecap="round"/><path d="M398 600 q-8 -30.0 -12.0 -60" stroke="#56B35E" stroke-width="5" fill="none" stroke-linecap="round"/><path d="M-4 600 q-11 -62.5 -16.5 -125" stroke="#6CC36C" stroke-width="5" fill="none" stroke-linecap="round"/><path d="M404 600 q14 -78.5 21.0 -157" stroke="#56B35E" stroke-width="5" fill="none" stroke-linecap="round"/><path d="M271 600 q14 -36.5 21.0 -73" stroke="#56B35E" stroke-width="5" fill="none" stroke-linecap="round"/><path d="M72 600 q12 -72.0 18.0 -144" stroke="#6CC36C" stroke-width="5" fill="none" stroke-linecap="round"/><path d="M259 600 q-14 -86.0 -21.0 -172" stroke="#3F9B4F" stroke-width="5" fill="none" stroke-linecap="round"/><path d="M7 600 q1 -44.0 1.5 -88" stroke="#2F8443" stroke-width="5" fill="none" stroke-linecap="round"/><path d="M301 600 q-13 -47.5 -19.5 -95" stroke="#2F8443" stroke-width="5" fill="none" stroke-linecap="round"/><path d="M30 600 q-5 -31.0 -7.5 -62" stroke="#2F8443" stroke-width="5" fill="none" stroke-linecap="round"/><path d="M28 600 q3 -40.5 4.5 -81" stroke="#6CC36C" stroke-width="5" fill="none" stroke-linecap="round"/><path d="M185 600 q11 -56.0 16.5 -112" stroke="#2F8443" stroke-width="5" fill="none" stroke-linecap="round"/><path d="M188 600 q10 -59.5 15.0 -119" stroke="#6CC36C" stroke-width="5" fill="none" stroke-linecap="round"/><path d="M194 600 q-12 -42.0 -18.0 -84" stroke="#3F9B4F" stroke-width="5" fill="none" stroke-linecap="round"/><path d="M307 600 q2 -76.5 3.0 -153" stroke="#6CC36C" stroke-width="5" fill="none" stroke-linecap="round"/><path d="M202 600 q-12 -86.5 -18.0 -173" stroke="#56B35E" stroke-width="5" fill="none" stroke-linecap="round"/><path d="M316 600 q12 -68.5 18.0 -137" stroke="#6CC36C" stroke-width="5" fill="none" stroke-linecap="round"/><path d="M206 600 q11 -45.0 16.5 -90" stroke="#56B35E" stroke-width="5" fill="none" stroke-linecap="round"/><path d="M180 600 q-9 -50.5 -13.5 -101" stroke="#56B35E" stroke-width="5" fill="none" stroke-linecap="round"/><path d="M157 600 q13 -93.0 19.5 -186" stroke="#2F8443" stroke-width="5" fill="none" stroke-linecap="round"/><path d="M122 600 q8 -30.5 12.0 -61" stroke="#56B35E" stroke-width="5" fill="none" stroke-linecap="round"/><path d="M-8 600 q-11 -69.5 -16.5 -139" stroke="#3F9B4F" stroke-width="5" fill="none" stroke-linecap="round"/><path d="M239 600 q2 -91.5 3.0 -183" stroke="#3F9B4F" stroke-width="5" fill="none" stroke-linecap="round"/><path d="M256 600 q-1 -61.0 -1.5 -122" stroke="#2F8443" stroke-width="5" fill="none" stroke-linecap="round"/><path d="M172 600 q10 -59.0 15.0 -118" stroke="#56B35E" stroke-width="5" fill="none" stroke-linecap="round"/><path d="M310 600 q7 -30.0 10.5 -60" stroke="#3F9B4F" stroke-width="5" fill="none" stroke-linecap="round"/><path d="M302 600 q3 -70.0 4.5 -140" stroke="#6CC36C" stroke-width="5" fill="none" stroke-linecap="round"/><path d="M390 600 q13 -69.0 19.5 -138" stroke="#6CC36C" stroke-width="5" fill="none" stroke-linecap="round"/><path d="M303 600 q-2 -86.5 -3.0 -173" stroke="#56B35E" stroke-width="5" fill="none" stroke-linecap="round"/><path d="M118 600 q7 -76.0 10.5 -152" stroke="#2F8443" stroke-width="5" fill="none" stroke-linecap="round"/><path d="M58 600 q-12 -85.0 -18.0 -170" stroke="#56B35E" stroke-width="5" fill="none" stroke-linecap="round"/><path d="M335 600 q-5 -52.5 -7.5 -105" stroke="#2F8443" stroke-width="5" fill="none" stroke-linecap="round"/><path d="M91 600 q7 -74.5 10.5 -149" stroke="#3F9B4F" stroke-width="5" fill="none" stroke-linecap="round"/><path d="M29 600 q6 -81.5 9.0 -163" stroke="#56B35E" stroke-width="5" fill="none" stroke-linecap="round"/><path d="M158 600 q-4 -77.5 -6.0 -155" stroke="#56B35E" stroke-width="5" fill="none" stroke-linecap="round"/><path d="M143 600 q5 -32.5 7.5 -65" stroke="#3F9B4F" stroke-width="5" fill="none" stroke-linecap="round"/><path d="M258 600 q11 -41.0 16.5 -82" stroke="#2F8443" stroke-width="5" fill="none" stroke-linecap="round"/><path d="M403 600 q-9 -42.5 -13.5 -85" stroke="#56B35E" stroke-width="5" fill="none" stroke-linecap="round"/><path d="M289 600 q7 -93.0 10.5 -186" stroke="#3F9B4F" stroke-width="5" fill="none" stroke-linecap="round"/><path d="M379 600 q-9 -44.5 -13.5 -89" stroke="#6CC36C" stroke-width="5" fill="none" stroke-linecap="round"/><path d="M335 600 q5 -58.0 7.5 -116" stroke="#2F8443" stroke-width="5" fill="none" stroke-linecap="round"/><path d="M342 600 q14 -81.5 21.0 -163" stroke="#56B35E" stroke-width="5" fill="none" stroke-linecap="round"/><path d="M240 600 q-5 -58.0 -7.5 -116" stroke="#2F8443" stroke-width="5" fill="none" stroke-linecap="round"/><path d="M107 600 q3 -71.5 4.5 -143" stroke="#6CC36C" stroke-width="5" fill="none" stroke-linecap="round"/><path d="M401 600 q2 -81.0 3.0 -162" stroke="#6CC36C" stroke-width="5" fill="none" stroke-linecap="round"/><path d="M408 600 q-5 -70.0 -7.5 -140" stroke="#6CC36C" stroke-width="5" fill="none" stroke-linecap="round"/><path d="M200 600 q-6 -31.5 -9.0 -63" stroke="#56B35E" stroke-width="5" fill="none" stroke-linecap="round"/><path d="M266 600 q8 -88.5 12.0 -177" stroke="#2F8443" stroke-width="5" fill="none" stroke-linecap="round"/><path d="M196 600 q5 -79.5 7.5 -159" stroke="#3F9B4F" stroke-width="5" fill="none" stroke-linecap="round"/><path d="M69 600 q-12 -95.0 -18.0 -190" stroke="#6CC36C" stroke-width="5" fill="none" stroke-linecap="round"/><path d="M312 600 q5 -74.0 7.5 -148" stroke="#2F8443" stroke-width="5" fill="none" stroke-linecap="round"/><path d="M36 600 q1 -63.0 1.5 -126" stroke="#56B35E" stroke-width="5" fill="none" stroke-linecap="round"/><path d="M317 600 q14 -91.0 21.0 -182" stroke="#3F9B4F" stroke-width="5" fill="none" stroke-linecap="round"/><path d="M66 600 q-12 -60.5 -18.0 -121" stroke="#2F8443" stroke-width="5" fill="none" stroke-linecap="round"/><path d="M57 600 q-9 -36.0 -13.5 -72" stroke="#6CC36C" stroke-width="5" fill="none" stroke-linecap="round"/><path d="M394 600 q-14 -63.5 -21.0 -127" stroke="#56B35E" stroke-width="5" fill="none" stroke-linecap="round"/><path d="M70 600 q-8 -42.0 -12.0 -84" stroke="#3F9B4F" stroke-width="5" fill="none" stroke-linecap="round"/><path d="M152 600 q-11 -40.0 -16.5 -80" stroke="#2F8443" stroke-width="5" fill="none" stroke-linecap="round"/><path d="M21 600 q5 -66.5 7.5 -133" stroke="#56B35E" stroke-width="5" fill="none" stroke-linecap="round"/><path d="M364 600 q6 -49.0 9.0 -98" stroke="#6CC36C" stroke-width="5" fill="none" stroke-linecap="round"/><path d="M56 600 q3 -40.0 4.5 -80" stroke="#2F8443" stroke-width="5" fill="none" stroke-linecap="round"/><path d="M345 600 q9 -30.0 13.5 -60" stroke="#56B35E" stroke-width="5" fill="none" stroke-linecap="round"/><path d="M247 600 q-10 -82.5 -15.0 -165" stroke="#56B35E" stroke-width="5" fill="none" stroke-linecap="round"/><path d="M142 600 q2 -91.5 3.0 -183" stroke="#3F9B4F" stroke-width="5" fill="none" stroke-linecap="round"/><path d="M182 600 q-9 -51.5 -13.5 -103" stroke="#2F8443" stroke-width="5" fill="none" stroke-linecap="round"/><path d="M253 600 q3 -80.0 4.5 -160" stroke="#2F8443" stroke-width="5" fill="none" stroke-linecap="round"/><path d="M195 600 q-9 -72.0 -13.5 -144" stroke="#6CC36C" stroke-width="5" fill="none" stroke-linecap="round"/><path d="M21 600 q-14 -84.0 -21.0 -168" stroke="#2F8443" stroke-width="5" fill="none" stroke-linecap="round"/><path d="M336 600 q-5 -32.0 -7.5 -64" stroke="#56B35E" stroke-width="5" fill="none" stroke-linecap="round"/><path d="M33 600 q-11 -50.0 -16.5 -100" stroke="#3F9B4F" stroke-width="5" fill="none" stroke-linecap="round"/><path d="M108 600 q3 -59.5 4.5 -119" stroke="#3F9B4F" stroke-width="5" fill="none" stroke-linecap="round"/><path d="M234 600 q14 -53.5 21.0 -107" stroke="#6CC36C" stroke-width="5" fill="none" stroke-linecap="round"/><path d="M364 600 q-4 -78.5 -6.0 -157" stroke="#56B35E" stroke-width="5" fill="none" stroke-linecap="round"/><path d="M261 600 q-11 -54.0 -16.5 -108" stroke="#6CC36C" stroke-width="5" fill="none" stroke-linecap="round"/><path d="M307 600 q-5 -75.5 -7.5 -151" stroke="#6CC36C" stroke-width="5" fill="none" stroke-linecap="round"/><path d="M297 600 q12 -34.5 18.0 -69" stroke="#56B35E" stroke-width="5" fill="none" stroke-linecap="round"/><path d="M120 600 q11 -69.0 16.5 -138" stroke="#6CC36C" stroke-width="5" fill="none" stroke-linecap="round"/><path d="M310 600 q11 -73.0 16.5 -146" stroke="#3F9B4F" stroke-width="5" fill="none" stroke-linecap="round"/><path d="M110 600 q14 -70.0 21.0 -140" stroke="#3F9B4F" stroke-width="5" fill="none" stroke-linecap="round"/><path d="M327 600 q5 -34.5 7.5 -69" stroke="#2F8443" stroke-width="5" fill="none" stroke-linecap="round"/><path d="M259 600 q-3 -90.5 -4.5 -181" stroke="#3F9B4F" stroke-width="5" fill="none" stroke-linecap="round"/><path d="M80 600 q1 -35.5 1.5 -71" stroke="#56B35E" stroke-width="5" fill="none" stroke-linecap="round"/><path d="M9 600 q7 -55.5 10.5 -111" stroke="#3F9B4F" stroke-width="5" fill="none" stroke-linecap="round"/><path d="M162 600 q8 -47.5 12.0 -95" stroke="#2F8443" stroke-width="5" fill="none" stroke-linecap="round"/><path d="M49 600 q14 -94.5 21.0 -189" stroke="#3F9B4F" stroke-width="5" fill="none" stroke-linecap="round"/><path d="M26 600 q5 -58.5 7.5 -117" stroke="#2F8443" stroke-width="5" fill="none" stroke-linecap="round"/><path d="M308 600 q14 -32.0 21.0 -64" stroke="#3F9B4F" stroke-width="5" fill="none" stroke-linecap="round"/><path d="M-5 600 q8 -91.0 12.0 -182" stroke="#56B35E" stroke-width="5" fill="none" stroke-linecap="round"/><path d="M99 600 q-7 -76.0 -10.5 -152" stroke="#2F8443" stroke-width="5" fill="none" stroke-linecap="round"/><path d="M407 600 q13 -68.0 19.5 -136" stroke="#6CC36C" stroke-width="5" fill="none" stroke-linecap="round"/><path d="M313 600 q-13 -81.5 -19.5 -163" stroke="#56B35E" stroke-width="5" fill="none" stroke-linecap="round"/><path d="M201 600 q-12 -93.0 -18.0 -186" stroke="#2F8443" stroke-width="5" fill="none" stroke-linecap="round"/><path d="M276 600 q11 -66.0 16.5 -132" stroke="#56B35E" stroke-width="5" fill="none" stroke-linecap="round"/><path d="M350 600 q-4 -85.5 -6.0 -171" stroke="#56B35E" stroke-width="5" fill="none" stroke-linecap="round"/><path d="M99 600 q1 -32.0 1.5 -64" stroke="#6CC36C" stroke-width="5" fill="none" stroke-linecap="round"/><path d="M131 600 q10 -72.0 15.0 -144" stroke="#6CC36C" stroke-width="5" fill="none" stroke-linecap="round"/><path d="M311 600 q-4 -82.0 -6.0 -164" stroke="#56B35E" stroke-width="5" fill="none" stroke-linecap="round"/><path d="M121 600 q2 -65.5 3.0 -131" stroke="#3F9B4F" stroke-width="5" fill="none" stroke-linecap="round"/><path d="M5 600 q-6 -81.5 -9.0 -163" stroke="#2F8443" stroke-width="5" fill="none" stroke-linecap="round"/><path d="M335 600 q5 -46.5 7.5 -93" stroke="#2F8443" stroke-width="5" fill="none" stroke-linecap="round"/><path d="M34 600 q5 -51.0 7.5 -102" stroke="#3F9B4F" stroke-width="5" fill="none" stroke-linecap="round"/><path d="M348 600 q-6 -57.0 -9.0 -114" stroke="#56B35E" stroke-width="5" fill="none" stroke-linecap="round"/><g><rect x="150" y="390" width="130" height="64" rx="14" fill="#DC2626"/><rect x="170" y="370" width="60" height="30" rx="6" fill="#991B1B"/><circle cx="175" cy="466" r="24" fill="#1F2937"/><circle cx="262" cy="466" r="24" fill="#1F2937"/><line x1="270" y1="400" x2="350" y2="300" stroke="#374151" stroke-width="8" stroke-linecap="round"/><line x1="335" y1="300" x2="372" y2="312" stroke="#374151" stroke-width="8" stroke-linecap="round"/></g></svg>